<?xml version="1.0" encoding="UTF-8"?>
<svg id="Layer_1" xmlns="http://www.w3.org/2000/svg" viewBox="0 0 1094.06384 985.56164">
  <defs>
    <style>
      .cls-1 {
        fill: #e50000;
      }

      .cls-2 {
        fill: #fff;
        font-family: Ebrima, Ebrima;
        font-size: 203.44162px;
        letter-spacing: .1em;
      }

      .cls-2, .cls-3 {
        isolation: isolate;
      }
    </style>
  </defs>
  <g id="logo-icon-browser">
    <rect id="Rectangle_135" width="1094.06384" height="985.56164" rx="37.67437" ry="37.67437"/>
    <g id="Group_225">
      <g id="E.O" class="cls-3">
        <text class="cls-2" transform="translate(376.49022 577.16992)"><tspan x="0" y="0">E.O</tspan></text>
      </g>
      <g id="Group_25">
        <g id="Group_18">
          <path id="Path_86" class="cls-1" d="M521.25324,725.60089l-254.64604-233.46017,24.77901,52.09128,254.64605,233.46018-24.77901-52.09128Z"/>
          <path id="Path_87" class="cls-1" d="M521.238,259.06513l-254.64604,233.46017,24.77901-52.09128,254.64605-233.46018-24.77901,52.09128Z"/>
          <path id="Path_88" class="cls-1" d="M569.27281,725.59936l254.64604-233.46017-24.77901,52.09128-254.64605,233.46018,24.77901-52.09128Z"/>
          <path id="Path_89" class="cls-1" d="M569.25757,259.06497l254.64604,233.46017-24.77778-52.09039-254.64728-233.46107,24.77901,52.09128Z"/>
        </g>
        <g id="Group_19">
          <path id="Path_86-2" class="cls-1" d="M516.81216,783.679L198.74463,492.07529l30.94949,65.06292,318.06664,291.60493-30.9486-65.06414Z"/>
          <path id="Path_87-2" class="cls-1" d="M516.794,200.95273L198.72647,492.55644l30.94949-65.06292,318.06664-291.60493-30.9486,65.06414Z"/>
          <path id="Path_88-2" class="cls-1" d="M576.78894,783.67821l318.06665-291.60494-30.94861,65.06414-318.06753,291.60371,30.94949-65.06292Z"/>
          <path id="Path_89-2" class="cls-1" d="M576.77079,200.94959l318.06665,291.60494-30.94861-65.06414-318.06753-291.60371,30.94949,65.06292Z"/>
        </g>
        <g id="Group_20">
          <path id="Path_86-3" class="cls-1" d="M509.47838,854.95883L113.58741,492.01433l38.52553,80.97896,395.88743,362.94938-38.52199-80.98384Z"/>
          <path id="Path_87-3" class="cls-1" d="M509.45461,129.66119L113.56718,492.61057l38.52199-80.98384L547.98013,48.68223l-38.52553,80.97896Z"/>
          <path id="Path_88-3" class="cls-1" d="M584.12892,854.95804l395.88743-362.94938-38.52199,80.98384-395.89097,362.9445,38.52553-80.97896Z"/>
          <path id="Path_89-3" class="cls-1" d="M584.10672,129.65884l395.89097,362.9445-38.52553-80.97896L545.58473,48.675l38.52199,80.98384Z"/>
        </g>
      </g>
    </g>
  </g>
</svg>