<svg xmlns="http://www.w3.org/2000/svg" width="22" height="22" viewBox="0 0 35 35">
  <path id="icon-globe" d="M24.063,17.5a42.745,42.745,0,0,1-.226,4.375H11.163a40.883,40.883,0,0,1-.226-4.375,42.745,42.745,0,0,1,.226-4.375H23.837a40.883,40.883,0,0,1,.226,4.375Zm1.969-4.375h8.415a17.561,17.561,0,0,1,0,8.75H26.031A43.191,43.191,0,0,0,26.25,17.5,43.19,43.19,0,0,0,26.031,13.125Zm7.7-2.187H25.751A24.045,24.045,0,0,0,21.971.574,17.534,17.534,0,0,1,33.722,10.938Zm-10.192,0H11.464A27.551,27.551,0,0,1,13.31,4.464,11.166,11.166,0,0,1,15.6.943,2.824,2.824,0,0,1,17.5,0a2.824,2.824,0,0,1,1.9.943,11.166,11.166,0,0,1,2.29,3.521A27.042,27.042,0,0,1,23.536,10.938Zm-14.287,0H1.271A17.545,17.545,0,0,1,13.029.574a24.045,24.045,0,0,0-3.78,10.363Zm-8.7,2.188H8.969a43.859,43.859,0,0,0,0,8.75H.554a17.561,17.561,0,0,1,0-8.75Zm12.756,17.4a27.074,27.074,0,0,1-1.846-6.467H23.536a27.394,27.394,0,0,1-1.846,6.467A11.166,11.166,0,0,1,19.4,34.05a2.809,2.809,0,0,1-1.9.95,2.824,2.824,0,0,1-1.9-.943,11.166,11.166,0,0,1-2.29-3.521ZM9.249,24.063a24.045,24.045,0,0,0,3.78,10.363A17.545,17.545,0,0,1,1.271,24.063Zm24.479,0A17.549,17.549,0,0,1,21.978,34.426c1.743-2.338,3.09-6,3.78-10.363Z" fill="#fdffff"/>
</svg>
