<svg id="logo-W-initials" xmlns="http://www.w3.org/2000/svg" width="61.684" height="55.375" viewBox="0 0 61.684 55.375">
  <text id="E.O" transform="translate(31 33)" fill="#fff" font-size="10" font-family="Ebrima" letter-spacing="0.1em"><tspan x="-8.383" y="0">E.O</tspan></text>
  <g id="logo-W-initials-2" data-name="logo-W-initials">
    <g id="Group_18" data-name="Group 18" transform="translate(10.907 9.879)">
      <path id="Path_86" data-name="Path 86" d="M3.162,1.72l21.42,2.442L21.42,2.442,0,0Z" transform="matrix(-0.809, -0.588, 0.588, -0.809, 19.887, 35.619)" fill="#e50000"/>
      <path id="Path_87" data-name="Path 87" d="M3.162,2.442,24.582,0,21.42,1.72,0,4.162Z" transform="matrix(-0.809, 0.588, -0.588, -0.809, 22.333, 3.367)" fill="#e50000"/>
      <path id="Path_88" data-name="Path 88" d="M3.162,2.442,24.582,0,21.42,1.72,0,4.162Z" transform="matrix(0.809, -0.588, 0.588, 0.809, 17.343, 32.251)" fill="#e50000"/>
      <path id="Path_89" data-name="Path 89" d="M3.162,1.72l21.42,2.442L21.42,2.442,0,0Z" transform="matrix(0.809, 0.588, -0.588, 0.809, 19.79, 0)" fill="#e50000"/>
    </g>
    <g id="Group_19" data-name="Group 19" transform="translate(6.063 5.443)">
      <path id="Path_86-2" data-name="Path 86" d="M3.949,2.149,30.7,5.2,26.754,3.05,0,0Z" transform="matrix(-0.809, -0.588, 0.588, -0.809, 24.84, 44.489)" fill="#e50000"/>
      <path id="Path_87-2" data-name="Path 87" d="M3.949,3.05,30.7,0,26.754,2.149,0,5.2Z" transform="matrix(-0.809, 0.588, -0.588, -0.809, 27.896, 4.206)" fill="#e50000"/>
      <path id="Path_88-2" data-name="Path 88" d="M3.949,3.05,30.7,0,26.754,2.149,0,5.2Z" transform="matrix(0.809, -0.588, 0.588, 0.809, 21.663, 40.283)" fill="#e50000"/>
      <path id="Path_89-2" data-name="Path 89" d="M3.949,2.149,30.7,5.2,26.754,3.05,0,0Z" transform="matrix(0.809, 0.588, -0.588, 0.809, 24.719, 0)" fill="#e50000"/>
    </g>
    <g id="Group_20" data-name="Group 20">
      <path id="Path_86-3" data-name="Path 86" d="M4.916,2.675l33.3,3.8L33.3,3.8,0,0Z" transform="matrix(-0.809, -0.588, 0.588, -0.809, 30.917, 55.375)" fill="#e50000"/>
      <path id="Path_87-3" data-name="Path 87" d="M4.916,3.8,38.216,0,33.3,2.675,0,6.471Z" transform="matrix(-0.809, 0.588, -0.588, -0.809, 34.721, 5.235)" fill="#e50000"/>
      <path id="Path_88-3" data-name="Path 88" d="M4.916,3.8,38.216,0,33.3,2.675,0,6.471Z" transform="matrix(0.809, -0.588, 0.588, 0.809, 26.963, 50.139)" fill="#e50000"/>
      <path id="Path_89-3" data-name="Path 89" d="M4.916,2.675l33.3,3.8L33.3,3.8,0,0Z" transform="matrix(0.809, 0.588, -0.588, 0.809, 30.766, 0)" fill="#e50000"/>
    </g>
  </g>
</svg>
