<svg xmlns="http://www.w3.org/2000/svg" width="76.391" height="68.577" viewBox="0 0 76.391 68.577">
  <g id="trade-mark-white" transform="translate(-590.492 -2251.412)">
    <text id="E.O" transform="translate(629 2290)" fill="#fdffff" font-size="15" font-family="Ebrima" letter-spacing="0.1em"><tspan x="-12.574" y="0">E.O</tspan></text>
    <g id="Group_96" data-name="Group 96" transform="translate(604 2263.646)">
      <path id="Path_86" data-name="Path 86" d="M3.916,2.131,30.442,5.155,26.527,3.024,0,0Z" transform="matrix(-0.809, -0.588, 0.588, -0.809, 24.628, 44.111)" fill="#fdffff"/>
      <path id="Path_87" data-name="Path 87" d="M3.916,3.024,30.442,0,26.527,2.131,0,5.155Z" transform="matrix(-0.809, 0.588, -0.588, -0.809, 27.658, 4.17)" fill="#fdffff"/>
      <path id="Path_88" data-name="Path 88" d="M3.916,3.024,30.442,0,26.527,2.131,0,5.155Z" transform="matrix(0.809, -0.588, 0.588, 0.809, 21.478, 39.941)" fill="#fdffff"/>
      <path id="Path_89" data-name="Path 89" d="M3.916,2.131,30.442,5.155,26.527,3.024,0,0Z" transform="matrix(0.809, 0.588, -0.588, 0.809, 24.508, 0)" fill="#fdffff"/>
    </g>
    <g id="Group_97" data-name="Group 97" transform="translate(598 2258.152)">
      <path id="Path_86-2" data-name="Path 86" d="M4.891,2.661,38.024,6.439,33.133,3.777,0,0Z" transform="matrix(-0.809, -0.588, 0.588, -0.809, 30.762, 55.097)" fill="#fdffff"/>
      <path id="Path_87-2" data-name="Path 87" d="M4.891,3.777,38.024,0,33.133,2.661,0,6.439Z" transform="matrix(-0.809, 0.588, -0.588, -0.809, 34.547, 5.209)" fill="#fdffff"/>
      <path id="Path_88-2" data-name="Path 88" d="M4.891,3.777,38.024,0,33.133,2.661,0,6.439Z" transform="matrix(0.809, -0.588, 0.588, 0.809, 26.828, 49.888)" fill="#fdffff"/>
      <path id="Path_89-2" data-name="Path 89" d="M4.891,2.661,38.024,6.439,33.133,3.777,0,0Z" transform="matrix(0.809, 0.588, -0.588, 0.809, 30.612, 0)" fill="#fdffff"/>
    </g>
    <g id="Group_98" data-name="Group 98" transform="translate(590.492 2251.412)">
      <path id="Path_86-3" data-name="Path 86" d="M6.088,3.312l41.24,4.7L41.24,4.7,0,0Z" transform="matrix(-0.809, -0.588, 0.588, -0.809, 38.289, 68.577)" fill="#fdffff"/>
      <path id="Path_87-3" data-name="Path 87" d="M6.088,4.7,47.327,0,41.239,3.312,0,8.014Z" transform="matrix(-0.809, 0.588, -0.588, -0.809, 42.999, 6.483)" fill="#fdffff"/>
      <path id="Path_88-3" data-name="Path 88" d="M6.088,4.7,47.327,0,41.24,3.312,0,8.014Z" transform="matrix(0.809, -0.588, 0.588, 0.809, 33.391, 62.094)" fill="#fdffff"/>
      <path id="Path_89-3" data-name="Path 89" d="M6.088,3.312l41.239,4.7L41.24,4.7,0,0Z" transform="matrix(0.809, 0.588, -0.588, 0.809, 38.102, 0)" fill="#fdffff"/>
    </g>
  </g>
</svg>
